<svg width="25" height="25" viewBox="0 0 25 25" fill="none" xmlns="http://www.w3.org/2000/svg">
<path d="M0.5 5.30029V19.7003C0.5 21.3805 0.5 22.2201 0.82698 22.8618C1.1146 23.4263 1.57321 23.8857 2.1377 24.1733C2.7788 24.5 3.61849 24.5 5.29537 24.5H19.7046C21.3815 24.5 22.22 24.5 22.8611 24.1733C23.4256 23.8857 23.8857 23.4263 24.1733 22.8618C24.5 22.2207 24.5 21.3822 24.5 19.7054V5.29537C24.5 3.61849 24.5 2.7788 24.1733 2.1377C23.8857 1.57321 23.4256 1.1146 22.8611 0.82698C22.2194 0.5 21.3805 0.5 19.7003 0.5H5.30029C3.62014 0.5 2.77943 0.5 2.1377 0.82698C1.57321 1.1146 1.1146 1.57321 0.82698 2.1377C0.5 2.77943 0.5 3.62014 0.5 5.30029Z" stroke="#DBD3C9" stroke-linecap="round" stroke-linejoin="round"/>
</svg>
