<svg width="127" height="29" viewBox="0 0 127 29" fill="none" xmlns="http://www.w3.org/2000/svg">
<path d="M80.9348 14.2792C80.9348 10.9921 83.4169 8.28958 86.7135 7.99249L89.4927 7.74333C89.3106 7.51333 89.1189 7.29291 88.9081 7.08208C85.5635 3.73749 79.5164 4.34124 75.4339 8.43333C73.4789 10.3883 72.2523 12.8417 71.9744 15.3429C71.8114 16.8092 71.9935 18.1796 72.4727 19.4062L77.2356 18.6204C79.3823 18.2658 80.9444 16.445 80.9444 14.2887L80.9348 14.2792Z" fill="#D2A679"/>
<path d="M86.8852 9.91C84.5852 10.1208 82.8507 11.9992 82.8507 14.2896C82.8507 17.385 80.6177 20.0108 77.5415 20.5188L73.459 21.1896C73.6507 21.4387 73.8615 21.6879 74.0915 21.9179C75.5098 23.3362 77.4361 24.0933 79.5923 24.0933C79.9469 24.0933 80.3015 24.0742 80.6561 24.0358C83.1573 23.7579 85.6202 22.5312 87.5657 20.5762C89.5111 18.6212 90.7473 16.1679 91.0252 13.6667C91.1882 12.2004 91.0061 10.8204 90.5269 9.59375L86.8948 9.91958L86.8852 9.91Z" fill="#D2A679"/>
<path d="M1.04688 27.2106V20.0601H2.23152C2.63493 19.7703 3.00425 19.3612 3.33948 18.8328C3.67472 18.2987 3.96165 17.5629 4.20028 16.6254C4.43892 15.6822 4.60938 14.4493 4.71164 12.9265L5.20597 5.5459H16.7543V20.0601H18.6634V27.1936H15.1179V23.0004H4.59232V27.2106H1.04688ZM6.4929 20.0601H13.2088V8.58852H8.52983L8.25709 12.9265C8.18323 14.0799 8.06108 15.1027 7.89062 15.9947C7.72584 16.8868 7.52415 17.668 7.28551 18.3385C7.05256 19.0032 6.78835 19.5771 6.4929 20.0601ZM26.7536 23.2561C25.4297 23.2561 24.2848 22.9748 23.3189 22.4123C22.3587 21.8441 21.6172 21.0544 21.0945 20.043C20.5717 19.026 20.3104 17.847 20.3104 16.5061C20.3104 15.1538 20.5717 13.972 21.0945 12.9606C21.6172 11.9436 22.3587 11.1538 23.3189 10.5913C24.2848 10.0231 25.4297 9.73909 26.7536 9.73909C28.0774 9.73909 29.2195 10.0231 30.1797 10.5913C31.1456 11.1538 31.8899 11.9436 32.4127 12.9606C32.9354 13.972 33.1967 15.1538 33.1967 16.5061C33.1967 17.847 32.9354 19.026 32.4127 20.043C31.8899 21.0544 31.1456 21.8441 30.1797 22.4123C29.2195 22.9748 28.0774 23.2561 26.7536 23.2561ZM26.7706 20.4436C27.3729 20.4436 27.8757 20.2731 28.2791 19.9322C28.6825 19.5856 28.9865 19.114 29.1911 18.5174C29.4013 17.9209 29.5064 17.2419 29.5064 16.4805C29.5064 15.7192 29.4013 15.0402 29.1911 14.4436C28.9865 13.847 28.6825 13.3754 28.2791 13.0288C27.8757 12.6822 27.3729 12.5089 26.7706 12.5089C26.1627 12.5089 25.6513 12.6822 25.2365 13.0288C24.8274 13.3754 24.5178 13.847 24.3075 14.4436C24.103 15.0402 24.0007 15.7192 24.0007 16.4805C24.0007 17.2419 24.103 17.9209 24.3075 18.5174C24.5178 19.114 24.8274 19.5856 25.2365 19.9322C25.6513 20.2731 26.1627 20.4436 26.7706 20.4436ZM43.2962 18.9862L46.8416 9.90954H49.603L44.4979 23.0004H42.0859L37.1002 9.90954H39.853L43.2962 18.9862ZM39.0263 9.90954V23.0004H35.5575V9.90954H39.0263ZM47.745 23.0004V9.90954H51.1712V23.0004H47.745ZM64.6073 23.0004L58.9993 15.5601H57.7379V23.0004H54.0476V5.5459H57.7379V12.5174H58.4794L64.2749 5.5459H68.8686L62.059 13.6424L69.184 23.0004H64.6073Z" fill="#EBEBEB"/>
<path d="M101.014 27.4493V5.5459H104.636V27.4493H101.014ZM101.014 23.2561C100.008 23.2561 99.0901 23.0942 98.2605 22.7703C97.431 22.4407 96.7151 21.9777 96.1128 21.3811C95.5105 20.7788 95.0446 20.0657 94.7151 19.2419C94.3855 18.4123 94.2207 17.5004 94.2207 16.5061C94.2207 15.5004 94.3855 14.5856 94.7151 13.7618C95.0446 12.9322 95.5105 12.2191 96.1128 11.6226C96.7151 11.0203 97.431 10.5572 98.2605 10.2334C99.0901 9.90386 100.008 9.73909 101.014 9.73909H101.687V23.2561H101.014ZM101.014 20.4265H101.414V12.5686H101.014C100.525 12.5686 100.091 12.6709 99.7094 12.8754C99.3287 13.0799 99.0077 13.3612 98.7463 13.7192C98.4849 14.0714 98.2861 14.4862 98.1497 14.9635C98.019 15.4407 97.9537 15.9549 97.9537 16.5061C97.9537 17.2334 98.073 17.8953 98.3116 18.4919C98.5503 19.0828 98.8997 19.5544 99.3599 19.9066C99.8202 20.2532 100.372 20.4265 101.014 20.4265ZM104.636 23.2561H103.963V9.73909H104.636C105.642 9.73909 106.559 9.90386 107.389 10.2334C108.218 10.5572 108.934 11.0203 109.537 11.6226C110.139 12.2191 110.605 12.9322 110.934 13.7618C111.264 14.5856 111.429 15.5004 111.429 16.5061C111.429 17.5004 111.264 18.4123 110.934 19.2419C110.605 20.0657 110.139 20.7788 109.537 21.3811C108.934 21.9777 108.218 22.4407 107.389 22.7703C106.559 23.0942 105.642 23.2561 104.636 23.2561ZM104.636 20.4265C105.125 20.4265 105.559 20.3271 105.94 20.1282C106.321 19.9237 106.642 19.6424 106.903 19.2845C107.164 18.9265 107.363 18.5118 107.5 18.0402C107.636 17.5629 107.704 17.0515 107.704 16.5061C107.704 15.7731 107.582 15.1112 107.338 14.5203C107.099 13.9237 106.752 13.4493 106.298 13.097C105.843 12.7447 105.289 12.5686 104.636 12.5686H104.235V20.4265H104.636ZM119.77 23.2561C118.424 23.2561 117.265 22.9834 116.293 22.4379C115.327 21.8868 114.583 21.1084 114.06 20.1027C113.537 19.0913 113.276 17.8953 113.276 16.5146C113.276 15.168 113.537 13.9862 114.06 12.9692C114.583 11.9521 115.319 11.1595 116.267 10.5913C117.222 10.0231 118.341 9.73909 119.625 9.73909C120.489 9.73909 121.293 9.87829 122.037 10.1566C122.787 10.4294 123.441 10.8413 123.998 11.3924C124.56 11.9436 124.998 12.6368 125.31 13.472C125.623 14.3015 125.779 15.2731 125.779 16.3868V17.3839H114.725V15.1339H122.361C122.361 14.6112 122.248 14.1481 122.02 13.7447C121.793 13.3413 121.478 13.026 121.074 12.7987C120.676 12.5657 120.213 12.4493 119.685 12.4493C119.134 12.4493 118.645 12.5771 118.219 12.8328C117.799 13.0828 117.469 13.4209 117.23 13.847C116.992 14.2674 116.87 14.7362 116.864 15.2532V17.3924C116.864 18.0402 116.983 18.5998 117.222 19.0714C117.466 19.543 117.81 19.9066 118.253 20.1623C118.696 20.418 119.222 20.5459 119.83 20.5459C120.233 20.5459 120.603 20.489 120.938 20.3754C121.273 20.2618 121.56 20.0913 121.799 19.864C122.037 19.6368 122.219 19.3584 122.344 19.0288L125.702 19.2504C125.532 20.0572 125.182 20.7618 124.654 21.364C124.131 21.9606 123.455 22.4265 122.625 22.7618C121.801 23.0913 120.85 23.2561 119.77 23.2561Z" fill="#EBEBEB"/>
</svg>
