<svg width="32" height="32" viewBox="0 0 32 32" fill="none" xmlns="http://www.w3.org/2000/svg">
<g clip-path="url(#clip0_380_1671)">
<path fill-rule="evenodd" clip-rule="evenodd" d="M7.11111 0C5.22513 0 3.41639 0.749204 2.0828 2.0828C0.749204 3.41639 0 5.22513 0 7.11111V24.8889C0 26.7749 0.749204 28.5836 2.0828 29.9172C3.41639 31.2508 5.22513 32 7.11111 32H24.8889C26.7749 32 28.5836 31.2508 29.9172 29.9172C31.2508 28.5836 32 26.7749 32 24.8889V7.11111C32 5.22513 31.2508 3.41639 29.9172 2.0828C28.5836 0.749204 26.7749 0 24.8889 0H7.11111ZM25.4791 12.5422C25.7408 12.1499 25.8359 11.6698 25.7436 11.2073C25.6512 10.7449 25.379 10.3381 24.9867 10.0764C24.5944 9.81476 24.1142 9.71964 23.6518 9.81199C23.1894 9.90434 22.7826 10.1766 22.5209 10.5689C21.8916 11.4044 21.232 12.2044 20.4604 12.9156C19.5662 13.7404 18.6613 14.3591 17.7796 14.7253L17.7653 11.3476C17.7144 10.9151 17.5065 10.5164 17.1811 10.227C16.8557 9.9377 16.4354 9.77783 16 9.77778C15.0364 9.83289 14.2222 10.544 14.2222 11.5556V19.3298C10.7591 18.3698 8.88889 15.0098 8.88889 11.5556C8.88889 11.0841 8.70159 10.6319 8.36819 10.2985C8.03479 9.96508 7.58261 9.77778 7.11111 9.77778C6.63962 9.77778 6.18743 9.96508 5.85403 10.2985C5.52063 10.6319 5.33333 11.0841 5.33333 11.5556C5.33333 18.0124 9.79556 23.1111 16 23.1111C16.4715 23.1111 16.9237 22.9238 17.2571 22.5904C17.5905 22.257 17.7778 21.8048 17.7778 21.3333V18.5547C20.1458 18.7431 22.4427 20.416 23.2996 22.128C23.3994 22.3441 23.5416 22.538 23.7178 22.6981C23.894 22.8583 24.1006 22.9814 24.3253 23.0601C24.55 23.1389 24.7882 23.1717 25.0258 23.1567C25.2634 23.1417 25.4956 23.079 25.7085 22.9726C25.9215 22.8661 26.1108 22.7179 26.2654 22.5369C26.42 22.3558 26.5367 22.1455 26.6085 21.9185C26.6803 21.6915 26.7057 21.4524 26.6834 21.2154C26.661 20.9783 26.5912 20.7482 26.4782 20.5387C25.6284 18.8373 24.0427 17.2462 22.0907 16.208C22.3538 15.9923 22.6145 15.7659 22.8729 15.5289C23.8524 14.6357 24.7268 13.6337 25.4791 12.5422Z" fill="#FAF6F0"/>
</g>
<defs>
<clipPath id="clip0_380_1671">
<rect width="32" height="32" fill="white"/>
</clipPath>
</defs>
</svg>
