<svg width="25" height="25" viewBox="0 0 25 25" fill="none" xmlns="http://www.w3.org/2000/svg">
<path d="M6.5 12.5L11 17L18.5 8M0.5 19.7003V5.30029C0.5 3.62014 0.5 2.77943 0.82698 2.1377C1.1146 1.57321 1.57321 1.1146 2.1377 0.82698C2.77943 0.5 3.62014 0.5 5.30029 0.5H19.7003C21.3805 0.5 22.2194 0.5 22.8611 0.82698C23.4256 1.1146 23.8857 1.57321 24.1733 2.1377C24.5 2.7788 24.5 3.61849 24.5 5.29537V19.7054C24.5 21.3822 24.5 22.2207 24.1733 22.8618C23.8857 23.4263 23.4256 23.8857 22.8611 24.1733C22.22 24.5 21.3815 24.5 19.7046 24.5H5.29537C3.61849 24.5 2.7788 24.5 2.1377 24.1733C1.57321 23.8857 1.1146 23.4263 0.82698 22.8618C0.5 22.2201 0.5 21.3805 0.5 19.7003Z" stroke="#DBD3C9" stroke-linecap="round" stroke-linejoin="round"/>
</svg>
