<svg width="48" height="48" viewBox="0 0 48 48" fill="none" xmlns="http://www.w3.org/2000/svg">
<g clip-path="url(#clip0_380_1904)">
<path d="M24 48C37.2548 48 48 37.2548 48 24C48 10.7452 37.2548 0 24 0C10.7452 0 0 10.7452 0 24C0 37.2548 10.7452 48 24 48Z" fill="#D2A679"/>
<path d="M24.7078 14.2929C24.3173 13.9024 23.6841 13.9024 23.2936 14.2929L16.9296 20.6569C16.5391 21.0474 16.5391 21.6805 16.9296 22.0711C17.3202 22.4616 17.9533 22.4616 18.3438 22.0711L24.0007 16.4142L29.6576 22.0711C30.0481 22.4616 30.6812 22.4616 31.0718 22.0711C31.4623 21.6805 31.4623 21.0474 31.0718 20.6569L24.7078 14.2929ZM24.0007 36H25.0007V15H24.0007H23.0007V36H24.0007Z" fill="#2A1C17"/>
</g>
<defs>
<clipPath id="clip0_380_1904">
<rect width="48" height="48" fill="white"/>
</clipPath>
</defs>
</svg>
